<ttFont>
<head>
    <!-- Most of this table will be recalculated by the compiler -->
    <tableVersion value="1.0"/>
    <fontRevision value="1.0"/>
    <checkSumAdjustment value="0xc49f56bb"/>
    <magicNumber value="0x5f0f3cf5"/>
    <flags value="00000000 00001011"/>
    <unitsPerEm value="1024"/>
    <created value="Fri Jul 30 07:09:53 2010"/>
    <modified value="Sun Oct 30 16:54:29 2016"/>
    <xMin value="-64"/>
    <yMin value="-192"/>
    <xMax value="640"/>
    <yMax value="704"/>
    <macStyle value="00000000 00000000"/>
    <lowestRecPPEM value="8"/>
    <fontDirectionHint value="2"/>
    <indexToLocFormat value="0"/>
    <glyphDataFormat value="0"/>
  </head>
          <CharString index="0">
            64 64 hlineto
            64 -64 vlineto
            -64 -64 hlineto
            -64 vlineto
            return
          </CharString>
          <CharString index="1">
            64 64 hlineto
            0 64 0 64 -64 0 0 -64 0 -64 rlineto
            return
          </CharString>
          <CharString index="2">
            -64 64 hlineto
            64 64 vlineto
            64 -64 hlineto
            -64 vlineto
            return
          </CharString>
          <CharString index="3">
            -64 64 hlineto
            0 64 0 64 64 0 64 0 0 -64 0 -64 0 -64 rlineto
            return
          </CharString>
          <CharString index="4">
            -64 64 hlineto
            0 64 0 64 64 0 0 -64 0 -64 rlineto
            return
          </CharString>
          <CharString index="5">
            64 64 hlineto
            0 64 0 64 0 64 -64 0 0 -64 0 -64 0 -64 rlineto
            return
          </CharString>
          <CharString index="6">
            64 64 hlineto
            0 64 0 64 -64 0 -64 0 -64 0 0 -64 0 -64 0 -64 64 0 rlineto
            return
          </CharString>
          <CharString index="7">
            64 64 hlineto
            0 64 0 64 0 64 -64 0 -64 0 0 -64 0 -64 64 0 0 -64 rlineto
            return
          </CharString>
          <CharString index="8">
            -64 0 -64 0 -64 0 0 -64 64 0 64 0 64 0 64 0 0 64 rlineto
            return
          </CharString>
          <CharString index="9">
            64 64 hlineto
            0 64 0 64 0 64 -64 0 -64 0 0 -64 0 -64 0 -64 0 -64 rlineto
            return
          </CharString>
          <CharString index="10">
            -64 0 -64 0 -64 0 0 64 0 64 0 64 0 64 64 0 64 0 64 0 64 0 0 -64 0 -64 0 -64 0 -64 rlineto
            return
          </CharString>
          <CharString index="11">
            64 64 -64 64 hlineto
            64 -64 vlineto
            -64 64 64 hlineto
            64 64 hlineto
            64 64 64 -64 vlineto
            -64 -64 hlineto
            -64 -64 vlineto
            -64 -64 hlineto
            0 -64 0 -64 64 0 64 0 0 -64 0 -64 rlineto
            return
          </CharString>
          <CharString index="12">
            64 64 hlineto
            64 64 vlineto
            64 64 hlineto
            0 64 0 64 -64 0 -64 0 0 64 0 64 -64 0 -64 0 0 -64 64 0 0 -64 0 -64 64 0 64 0 0 -64 rlineto
            -64 0 -64 0 0 -64 0 -64 -64 0 0 -64 rlineto
            return
          </CharString>
          <CharString index="13">
            -64 0 -64 0 -64 0 0 64 0 64 0 64 64 0 64 0 64 0 64 0 0 -64 0 -64 0 -64 rlineto
            return
          </CharString>
          <CharString index="14">
            -64 0 -64 0 -64 0 0 64 0 64 64 0 64 0 64 0 64 0 0 -64 0 -64 rlineto
            return
          </CharString>
          <CharString index="15">
            64 64 hlineto
            0 64 0 64 0 64 0 64 -64 0 -64 0 0 -64 0 -64 0 -64 0 -64 0 -64 rlineto
            return
          </CharString>
          <CharString index="16">
            64 64 hlineto
            0 64 0 64 0 64 0 64 0 64 0 64 0 64 0 64 -64 0 -64 0 -64 0 -64 0 -64 0 -64 0 -64 0 rlineto
            -64 0 -64 0 0 -64 0 -64 0 -64 0 -64 0 -64 0 -64 0 -64 0 -64 0 -64 64 0 64 0 64 0 64 0 rlineto
            64 0 64 0 64 0 rlineto
            return
          </CharString>
          <CharString index="17">
            -64 0 -64 0 -64 0 -64 0 -64 0 -64 0 0 64 0 64 0 64 0 64 0 64 0 64 0 64 64 0 64 0 rlineto
            64 0 64 0 64 0 64 0 64 0 0 -64 0 -64 0 -64 0 -64 0 -64 0 -64 0 -64 rlineto
            return
          </CharString>
          <CharString index="18">
            64 64 hlineto
            0 64 0 64 0 64 -64 0 -64 0 -64 0 -64 0 0 -64 0 -64 0 -64 0 -64 64 0 64 0 rlineto
            return
          </CharString>
        <CharString name=".notdef">
          -31 34 hmoveto
          272 682 -272 hlineto
          34 -648 rmoveto
          614 204 -614 vlineto
          endchar
        </CharString>
        <CharString name=".null">
          -405 endchar
        </CharString>
        <CharString name="A">
          448 hmoveto
          64 64 hlineto
          0 64 0 64 0 64 0 64 0 64 0 64 0 64 0 64 -64 0 -64 0 -64 0 -64 0 -64 0 -64 0 -64 0 rlineto
          0 -64 0 -64 0 -64 0 -64 0 -64 0 -64 0 -64 0 -64 0 -64 64 0 64 0 0 64 0 64 0 64 64 0 rlineto
          64 0 64 0 64 0 0 -64 0 -64 rlineto
          -64 256 rmoveto
          -94 callsubr
          endchar
        </CharString>
        <CharString name="B">
          448 hmoveto
          64 64 hlineto
          0 64 0 64 0 64 0 64 0 64 -64 0 -64 0 0 64 0 64 0 64 -64 0 -64 0 -64 0 -64 0 -64 0 rlineto
          0 -64 0 -64 0 -64 0 -64 0 -64 0 -64 0 -64 0 -64 0 -64 64 0 64 0 64 0 64 0 64 0 rlineto
          128 vmoveto
          -93 callsubr
          -192 256 rmoveto
          -105 callsubr
          endchar
        </CharString>
        <CharString name="C">
          448 hmoveto
          64 64 hlineto
          64 -64 vlineto
          -64 0 -64 0 -64 0 -64 0 0 64 0 64 0 64 0 64 0 64 0 64 64 0 64 0 64 0 64 0 64 0 rlineto
          64 -64 vlineto
          -64 0 -64 0 -64 0 -64 0 -64 0 -64 0 0 -64 0 -64 0 -64 0 -64 0 -64 0 -64 0 -64 0 -64 0 -64 rlineto
          64 0 64 0 64 0 64 0 64 0 rlineto
          endchar
        </CharString>
        <CharString name="D">
          384 hmoveto
          64 64 hlineto
          0 64 0 64 64 0 0 64 0 64 0 64 0 64 -64 0 -64 0 0 64 0 64 -64 0 -64 0 -64 0 -64 0 rlineto
          -64 -64 hlineto
          0 -64 0 -64 0 -64 0 -64 0 -64 0 -64 0 -64 0 -64 64 0 64 0 64 0 64 0 rlineto
          128 vmoveto
          -64 0 -64 0 0 64 0 64 0 64 0 64 0 64 0 64 64 0 64 0 0 -64 0 -64 64 0 64 0 0 -64 rlineto
          -64 -64 -64 vlineto
          -64 vlineto
          endchar
        </CharString>
        <CharString name="E">
          448 hmoveto
          64 64 hlineto
          64 -64 vlineto
          -64 0 -64 0 -64 0 -64 0 0 64 0 64 64 0 64 0 64 0 64 0 0 64 -64 0 -64 0 -64 0 -64 0 rlineto
          0 64 0 64 0 64 64 0 64 0 64 0 64 0 64 0 0 64 -64 0 -64 0 -64 0 -64 0 -64 0 -64 0 rlineto
          -64 -64 hlineto
          0 -64 0 -64 0 -64 0 -64 0 -64 0 -64 0 -64 0 -64 64 0 64 0 64 0 64 0 64 0 rlineto
          endchar
        </CharString>
        <CharString name="Euro">
          448 64 rmoveto
          -64 0 -64 0 -64 0 0 64 0 64 64 0 64 0 64 0 0 64 -64 0 -64 0 -64 0 0 64 64 0 64 0 rlineto
          64 64 -64 hlineto
          -64 0 -64 0 0 64 0 64 64 0 64 0 64 0 64 0 0 64 -64 0 -64 0 -64 0 -64 0 -64 0 -64 0 rlineto
          0 -64 0 -64 0 -64 -64 0 0 -64 64 0 0 -64 -64 0 0 -64 64 0 0 -64 0 -64 0 -64 64 0 64 0 rlineto
          64 0 64 0 64 0 64 0 0 64 rlineto
          endchar
        </CharString>
        <CharString name="F">
          107 128 hmoveto
          64 64 hlineto
          0 64 0 64 0 64 64 0 64 0 64 0 0 64 -64 0 -64 0 -64 0 0 64 0 64 0 64 64 0 64 0 rlineto
          64 0 64 0 0 64 -64 0 -64 0 -64 0 -64 0 -64 0 -64 0 0 -64 0 -64 0 -64 0 -64 0 -64 0 -64 rlineto
          0 -64 0 -64 0 -64 rlineto
          endchar
        </CharString>
        <CharString name="G">
          384 448 rmoveto
          64 64 hlineto
          64 -64 vlineto
          -64 0 -64 0 -64 0 -64 0 -64 0 0 -64 0 -64 0 -64 0 -64 0 -64 0 -64 0 -64 0 -64 0 -64 64 0 rlineto
          64 0 64 0 64 0 64 0 64 0 64 0 0 64 0 64 0 64 0 64 0 64 -64 0 -64 0 -64 0 0 -64 rlineto
          64 0 64 0 0 -64 0 -64 -64 0 -64 0 -64 0 -64 0 0 64 0 64 0 64 0 64 0 64 0 64 64 0 rlineto
          64 0 64 0 rlineto
          endchar
        </CharString>
        <CharString name="H">
          448 hmoveto
          64 64 hlineto
          0 64 0 64 0 64 0 64 0 64 0 64 0 64 0 64 -64 0 0 -64 0 -64 0 -64 -64 0 -64 0 -64 0 rlineto
          -64 64 hlineto
          0 64 0 64 -64 0 -64 0 0 -64 0 -64 0 -64 0 -64 0 -64 0 -64 0 -64 0 -64 0 -64 64 0 64 0 rlineto
          0 64 0 64 0 64 0 64 64 0 64 0 64 0 64 0 0 -64 0 -64 0 -64 rlineto
          endchar
        </CharString>
        <CharString name="I">
          -149 128 hmoveto
          64 64 hlineto
          0 64 0 64 0 64 0 64 0 64 0 64 0 64 0 64 -64 0 -64 0 0 -64 0 -64 0 -64 0 -64 0 -64 rlineto
          0 -64 0 -64 0 -64 0 -64 rlineto
          endchar
        </CharString>
        <CharString name="J">
          43 320 hmoveto
          64 64 hlineto
          0 64 0 64 0 64 0 64 0 64 0 64 0 64 0 64 -64 0 0 -64 0 -64 0 -64 0 -64 0 -64 0 -64 rlineto
          -64 -64 vlineto
          -64 64 -64 hlineto
          -64 -64 hlineto
          0 -64 0 -64 64 0 64 0 64 0 rlineto
          endchar
        </CharString>
        <CharString name="K">
          448 hmoveto
          64 64 hlineto
          0 64 0 64 -64 0 -64 0 -64 0 0 64 64 0 64 0 0 64 0 64 0 64 0 64 0 64 -64 0 0 -64 rlineto
          0 -64 0 -64 0 -64 -64 0 -64 0 -64 0 0 64 0 64 0 64 0 64 -64 0 -64 0 0 -64 0 -64 0 -64 rlineto
          0 -64 0 -64 0 -64 0 -64 0 -64 0 -64 64 0 64 0 0 64 0 64 0 64 0 64 64 0 0 -64 0 -64 rlineto
          64 0 64 0 64 0 0 -64 rlineto
          endchar
        </CharString>
        <CharString name="L">
          107 384 hmoveto
          64 64 hlineto
          64 -64 vlineto
          -64 0 -64 0 -64 0 0 64 0 64 0 64 0 64 0 64 0 64 0 64 -64 0 -64 0 0 -64 0 -64 0 -64 rlineto
          0 -64 0 -64 0 -64 0 -64 0 -64 0 -64 64 0 64 0 64 0 64 0 rlineto
          endchar
        </CharString>
        <CharString name="M">
          299 576 hmoveto
          64 64 hlineto
          0 64 0 64 0 64 0 64 0 64 0 64 0 64 0 64 -64 0 -64 0 -64 0 -64 0 -64 0 -64 0 -64 0 rlineto
          -64 0 -64 0 0 -64 0 -64 0 -64 0 -64 0 -64 0 -64 0 -64 0 -64 0 -64 64 0 64 0 0 64 0 64 rlineto
          0 64 0 64 0 64 0 64 0 64 0 64 64 0 64 0 64 0 0 -64 0 -64 0 -64 0 -64 0 -64 64 0 rlineto
          0 64 0 64 0 64 0 64 0 64 64 0 64 0 0 -64 0 -64 0 -64 0 -64 0 -64 0 -64 0 -64 rlineto
          endchar
        </CharString>
        <CharString name="N">
          448 hmoveto
          64 64 hlineto
          0 64 0 64 0 64 0 64 0 64 0 64 0 64 0 64 -64 0 0 -64 0 -64 0 -64 0 -64 0 -64 0 -64 rlineto
          -64 64 hlineto
          64 -64 64 vlineto
          64 -64 vlineto
          -64 64 hlineto
          64 -64 vlineto
          -64 -64 hlineto
          0 -64 0 -64 0 -64 0 -64 0 -64 0 -64 0 -64 0 -64 64 0 64 0 0 64 0 64 0 64 0 64 0 64 rlineto
          64 64 -64 vlineto
          -64 64 -64 vlineto
          -64 64 vlineto
          64 -64 hlineto
          endchar
        </CharString>
        <CharString name="O">
          448 hmoveto
          64 64 hlineto
          0 64 0 64 0 64 0 64 0 64 0 64 0 64 0 64 -64 0 -64 0 -64 0 -64 0 -64 0 -64 0 -64 0 rlineto
          0 -64 0 -64 0 -64 0 -64 0 -64 0 -64 0 -64 0 -64 0 -64 64 0 64 0 64 0 64 0 64 0 rlineto
          128 vmoveto
          -64 0 -64 0 -64 0 0 64 0 64 0 64 0 64 0 64 0 64 64 0 64 0 64 0 64 0 0 -64 0 -64 rlineto
          0 -64 0 -64 0 -64 0 -64 rlineto
          endchar
        </CharString>
        <CharString name="Oslash">
          235 256 -64 rmoveto
          64 64 64 hlineto
          64 0 64 0 64 0 0 64 0 64 0 64 0 64 0 64 0 64 0 64 0 64 0 64 0 64 -64 0 -64 0 rlineto
          64 -64 -64 -64 vlineto
          -64 0 -64 0 -64 0 -64 0 0 -64 0 -64 0 -64 0 -64 0 -64 0 -64 0 -64 0 -64 0 -64 0 -64 64 0 rlineto
          64 0 64 0 rlineto
          128 384 rmoveto
          64 64 hlineto
          0 64 0 64 64 0 0 -64 0 -64 0 -64 0 -64 0 -64 0 -64 0 -64 -64 0 -64 0 -64 0 0 64 0 64 rlineto
          64 -64 -64 vlineto
          0 -64 0 -64 -64 0 0 64 0 64 0 64 0 64 0 64 0 64 0 64 64 0 64 0 64 0 0 -64 0 -64 rlineto
          endchar
        </CharString>
        <CharString name="P">
          128 hmoveto
          64 64 hlineto
          0 64 0 64 64 0 64 0 64 0 64 0 64 0 0 64 0 64 0 64 0 64 0 64 0 64 -64 0 -64 0 rlineto
          -64 0 -64 0 -64 0 -64 0 -64 0 0 -64 0 -64 0 -64 0 -64 0 -64 0 -64 0 -64 0 -64 0 -64 rlineto
          320 320 rmoveto
          -94 callsubr
          endchar
        </CharString>
        <CharString name="Q">
          235 512 hmoveto
          64 64 hlineto
          64 -64 64 vlineto
          0 64 0 64 0 64 0 64 0 64 0 64 -64 0 -64 0 -64 0 -64 0 -64 0 -64 0 -64 0 0 -64 0 -64 rlineto
          0 -64 0 -64 0 -64 0 -64 0 -64 0 -64 0 -64 64 0 64 0 64 0 64 0 64 0 64 0 rlineto
          -192 128 rmoveto
          -64 64 hlineto
          0 64 0 64 0 64 0 64 0 64 64 0 64 0 64 0 64 0 0 -64 0 -64 0 -64 0 -64 0 -64 0 -64 rlineto
          -64 64 hlineto
          64 -64 -64 vlineto
          -64 vlineto
          endchar
        </CharString>
        <CharString name="R">
          448 hmoveto
          64 64 hlineto
          64 -64 vlineto
          -64 64 64 hlineto
          64 64 hlineto
          0 64 0 64 0 64 0 64 0 64 -64 0 -64 0 -64 0 -64 0 -64 0 -64 0 -64 0 0 -64 0 -64 0 -64 rlineto
          0 -64 0 -64 0 -64 0 -64 0 -64 0 -64 64 0 64 0 0 64 0 64 0 64 64 0 64 0 0 -64 0 -64 rlineto
          64 0 64 0 rlineto
          -64 256 rmoveto
          -94 callsubr
          endchar
        </CharString>
        <CharString name="S">
          448 hmoveto
          64 64 hlineto
          0 64 0 64 0 64 0 64 0 64 -64 0 -64 0 -64 0 -64 0 -64 0 0 64 0 64 64 0 64 0 64 0 rlineto
          64 0 64 0 0 64 -64 0 -64 0 -64 0 -64 0 -64 0 -64 0 -64 0 0 -64 0 -64 0 -64 0 -64 0 -64 rlineto
          64 0 64 0 64 0 64 0 64 0 0 -64 0 -64 -64 0 -64 0 -64 0 -64 0 -64 0 0 -64 0 -64 64 0 rlineto
          64 0 64 0 64 0 64 0 rlineto
          endchar
        </CharString>
        <CharString name="T">
          235 320 hmoveto
          64 64 hlineto
          0 64 0 64 0 64 0 64 0 64 0 64 0 64 64 0 64 0 64 0 0 64 -64 0 -64 0 -64 0 -64 0 rlineto
          -64 0 -64 0 -64 0 -64 0 0 -64 64 0 64 0 64 0 0 -64 0 -64 0 -64 0 -64 0 -64 0 -64 0 -64 rlineto
          -64 vlineto
          endchar
        </CharString>
        <CharString name="U">
          448 hmoveto
          64 64 hlineto
          0 64 0 64 0 64 0 64 0 64 0 64 0 64 0 64 -64 0 0 -64 0 -64 0 -64 0 -64 0 -64 0 -64 rlineto
          -64 -64 vlineto
          -64 0 -64 0 -64 0 0 64 0 64 0 64 0 64 0 64 0 64 0 64 -64 0 -64 0 0 -64 0 -64 0 -64 rlineto
          0 -64 0 -64 0 -64 0 -64 0 -64 0 -64 64 0 64 0 64 0 64 0 64 0 rlineto
          endchar
        </CharString>
        <CharString name="V">
          107 256 hmoveto
          64 64 hlineto
          64 64 64 vlineto
          0 64 0 64 64 0 0 64 0 64 0 64 0 64 -64 0 0 -64 0 -64 0 -64 -64 0 0 -64 0 -64 0 -64 rlineto
          -64 -64 hlineto
          -64 -64 64 vlineto
          0 64 0 64 0 64 0 64 0 64 0 64 0 64 -64 0 -64 0 0 -64 0 -64 0 -64 0 -64 0 -64 0 -64 rlineto
          0 -64 0 -64 0 -64 64 0 64 0 rlineto
          endchar
        </CharString>
        <CharString name="W">
          299 576 hmoveto
          64 64 hlineto
          0 64 0 64 0 64 0 64 0 64 0 64 0 64 0 64 -64 0 0 -64 0 -64 0 -64 0 -64 0 -64 0 -64 rlineto
          -64 -64 vlineto
          -64 64 hlineto
          0 64 0 64 0 64 -64 0 0 -64 0 -64 0 -64 0 -64 -64 0 -64 0 -64 0 0 64 0 64 0 64 0 64 rlineto
          0 64 0 64 0 64 -64 0 -64 0 0 -64 0 -64 0 -64 0 -64 0 -64 0 -64 0 -64 0 -64 0 -64 64 0 rlineto
          64 0 64 0 64 0 64 0 64 0 64 0 rlineto
          endchar
        </CharString>
        <CharString name="X">
          235 512 hmoveto
          64 64 hlineto
          0 64 0 64 -64 0 -64 0 -64 0 0 64 0 64 64 0 64 0 64 0 0 64 0 64 0 64 0 64 -64 0 rlineto
          0 -64 0 -64 0 -64 -64 0 -64 0 -64 0 -64 0 -64 0 0 64 0 64 0 64 -64 0 -64 0 0 -64 0 -64 rlineto
          0 -64 0 -64 64 0 64 0 64 0 0 -64 0 -64 -64 0 -64 0 -64 0 0 -64 0 -64 0 -64 64 0 64 0 rlineto
          0 64 0 64 64 0 64 0 64 0 64 0 64 0 0 -64 rlineto
          endchar
        </CharString>
        <CharString name="Y">
          320 hmoveto
          64 64 hlineto
          0 64 0 64 0 64 64 0 64 0 0 64 0 64 0 64 0 64 0 64 -64 0 0 -64 0 -64 0 -64 0 -64 rlineto
          -64 0 -64 0 -64 0 -64 0 0 64 0 64 0 64 0 64 -64 0 -64 0 0 -64 0 -64 0 -64 0 -64 0 -64 rlineto
          64 0 64 0 64 0 0 -64 0 -64 0 -64 0 -64 rlineto
          endchar
        </CharString>
        <CharString name="Z">
          235 512 hmoveto
          64 64 hlineto
          64 -64 vlineto
          -64 0 -64 0 -64 0 -64 0 -64 0 0 64 64 0 64 0 0 64 0 64 64 0 64 0 0 64 64 0 64 0 rlineto
          0 64 0 64 0 64 -64 0 -64 0 -64 0 -64 0 -64 0 -64 0 -64 0 -64 0 0 -64 64 0 64 0 64 0 rlineto
          64 0 64 0 64 0 64 0 0 -64 -64 0 -64 0 0 -64 -64 0 -64 0 0 -64 0 -64 -64 0 -64 0 -64 0 rlineto
          0 -64 0 -64 0 -64 0 -64 64 0 64 0 64 0 64 0 64 0 64 0 rlineto
          endchar
        </CharString>
        <CharString name="a">
          448 hmoveto
          64 64 hlineto
          0 64 0 64 0 64 0 64 0 64 -64 0 -64 0 -64 0 -64 0 -64 0 0 -64 64 0 64 0 64 0 64 0 rlineto
          -64 -64 vlineto
          -64 0 -64 0 -64 0 -64 0 -64 0 0 -64 0 -64 0 -64 0 -64 64 0 64 0 64 0 64 0 64 0 rlineto
          128 vmoveto
          -64 0 -64 0 -64 0 0 64 64 0 64 0 64 0 64 0 0 -64 rlineto
          endchar
        </CharString>
        <CharString name="ampersand">
          299 576 -64 rmoveto
          64 64 -64 64 -64 hlineto
          -64 64 64 hlineto
          64 64 hlineto
          64 -64 -64 -64 vlineto
          -64 64 -64 64 64 hlineto
          64 64 hlineto
          0 64 0 64 0 64 0 64 -64 0 -64 0 -64 0 -64 0 -64 0 0 -64 0 -64 0 -64 0 -64 0 -64 64 0 rlineto
          -64 -64 vlineto
          -64 -64 hlineto
          0 -64 0 -64 0 -64 64 0 64 0 64 0 64 0 64 0 64 0 64 0 0 -64 rlineto
          -192 128 rmoveto
          -64 0 -64 0 0 64 0 64 64 0 64 0 0 -64 64 0 0 -64 rlineto
          -64 320 rmoveto
          -104 callsubr
          endchar
        </CharString>
        <CharString name="asciicircum">
          448 448 rmoveto
          64 64 hlineto
          64 -64 vlineto
          -64 64 hlineto
          64 -64 vlineto
          -64 0 -64 0 0 -64 0 -64 -64 0 -64 0 0 -64 0 -64 64 0 0 64 64 0 64 0 0 64 0 64 64 0 rlineto
          0 -64 0 -64 64 0 64 0 rlineto
          endchar
        </CharString>
        <CharString name="asciitilde">
          43 64 320 rmoveto
          64 64 64 -64 64 hlineto
          64 0 64 0 0 64 0 64 -64 0 0 -64 -64 0 0 64 -64 0 -64 0 -64 0 0 -64 rlineto
          endchar
        </CharString>
        <CharString name="asterisk">
          43 320 384 rmoveto
          64 64 -64 64 64 64 -64 hlineto
          -64 64 -64 -64 -64 hlineto
          -64 -64 64 -64 -64 -64 64 hlineto
          64 64 64 -64 hlineto
          endchar
        </CharString>
        <CharString name="at">
          299 448 128 rmoveto
          -64 0 -64 0 -64 0 -64 0 -64 0 0 64 0 64 0 64 0 64 0 64 0 64 0 64 64 0 64 0 64 0 rlineto
          64 0 64 0 64 0 64 0 0 -64 0 -64 0 -64 0 -64 -64 0 0 64 0 64 0 64 -64 0 -64 0 -64 0 rlineto
          -64 0 -64 0 0 -64 0 -64 0 -64 0 -64 0 -64 64 0 64 0 64 0 64 0 64 0 64 0 64 0 0 64 rlineto
          0 64 0 64 0 64 0 64 0 64 0 64 -64 0 -64 0 -64 0 -64 0 -64 0 -64 0 -64 0 -64 0 -64 0 rlineto
          0 -64 0 -64 0 -64 0 -64 0 -64 0 -64 0 -64 0 -64 0 -64 64 0 64 0 64 0 64 0 64 0 64 0 rlineto
          64 64 hlineto
          -128 192 rmoveto
          -105 callsubr
          endchar
        </CharString>
        <CharString name="b">
          448 hmoveto
          64 64 hlineto
          0 64 0 64 0 64 0 64 0 64 -64 0 -64 0 -64 0 -64 0 -64 0 0 64 0 64 0 64 -64 0 -64 0 rlineto
          0 -64 0 -64 0 -64 0 -64 0 -64 0 -64 0 -64 0 -64 0 -64 64 0 64 0 64 0 64 0 64 0 rlineto
          128 vmoveto
          -94 callsubr
          endchar
        </CharString>
        <CharString name="backslash">
          107 384 hmoveto
          -102 callsubr
          -128 128 rmoveto
          -106 callsubr
          -128 64 rmoveto
          -98 callsubr
          endchar
        </CharString>
        <CharString name="bar">
          -213 64 -64 rmoveto
          64 64 hlineto
          0 64 0 64 0 64 0 64 0 64 0 64 0 64 0 64 0 64 0 64 0 64 -64 0 0 -64 0 -64 0 -64 rlineto
          0 -64 0 -64 0 -64 0 -64 0 -64 0 -64 0 -64 0 -64 rlineto
          endchar
        </CharString>
        <CharString name="braceleft">
          -21 256 -64 rmoveto
          64 64 hlineto
          64 -64 64 vlineto
          0 64 0 64 0 64 -64 0 -64 0 0 64 64 0 64 0 0 64 0 64 0 64 0 64 64 0 0 64 -64 0 rlineto
          -64 -64 hlineto
          0 -64 0 -64 0 -64 -64 0 -64 0 0 -64 0 -64 0 -64 64 0 64 0 0 -64 0 -64 0 -64 0 -64 0 -64 rlineto
          endchar
        </CharString>
        <CharString name="braceright">
          -21 128 -64 rmoveto
          64 64 hlineto
          0 64 0 64 0 64 0 64 64 0 64 0 0 64 0 64 0 64 -64 0 -64 0 0 64 0 64 0 64 0 64 rlineto
          -64 0 -64 0 0 -64 64 0 0 -64 0 -64 0 -64 0 -64 64 0 64 0 0 -64 -64 0 -64 0 0 -64 0 -64 rlineto
          0 -64 0 -64 -64 0 0 -64 0 -64 rlineto
          endchar
        </CharString>
        <CharString name="bracketleft">
          -85 192 hmoveto
          64 64 hlineto
          64 -64 vlineto
          -64 64 hlineto
          0 64 0 64 0 64 0 64 0 64 0 64 0 64 64 0 64 0 0 64 -64 0 -64 0 -64 0 0 -64 0 -64 rlineto
          0 -64 0 -64 0 -64 0 -64 0 -64 0 -64 0 -64 0 -64 0 -64 64 0 rlineto
          endchar
        </CharString>
        <CharString name="bracketright">
          -85 192 hmoveto
          64 64 hlineto
          0 64 0 64 0 64 0 64 0 64 0 64 0 64 0 64 0 64 0 64 -64 0 -64 0 -64 0 0 -64 64 0 rlineto
          64 -64 hlineto
          0 -64 0 -64 0 -64 0 -64 0 -64 0 -64 0 -64 -64 0 -64 0 0 -64 0 -64 64 0 rlineto
          endchar
        </CharString>
        <CharString name="brokenbar">
          -149 128 -64 rmoveto
          -92 callsubr
          64 448 rmoveto
          -92 callsubr
          endchar
        </CharString>
        <CharString name="c">
          107 384 hmoveto
          64 64 hlineto
          64 -64 vlineto
          -64 0 -64 0 -64 0 0 64 0 64 0 64 64 0 64 0 64 0 64 0 0 64 -64 0 -64 0 -64 0 -64 0 rlineto
          -64 0 -64 0 0 -64 0 -64 0 -64 0 -64 0 -64 0 -64 64 0 64 0 64 0 64 0 rlineto
          endchar
        </CharString>
        <CharString name="cent">
          107 256 64 rmoveto
          64 64 64 hlineto
          64 64 hlineto
          64 -64 vlineto
          -64 64 hlineto
          0 64 0 64 64 0 64 0 0 64 -64 0 -64 0 0 64 -64 0 0 -64 -64 0 -64 0 -64 0 0 -64 0 -64 rlineto
          0 -64 0 -64 0 -64 0 -64 64 0 64 0 64 0 rlineto
          128 vmoveto
          -103 callsubr
          endchar
        </CharString>
        <CharString name="colon">
          -21 64 256 rmoveto
          -106 callsubr
          192 -192 rmoveto
          -107 callsubr
          64 256 rmoveto
          -107 callsubr
          endchar
        </CharString>
        <CharString name="comma">
          -149 128 -128 rmoveto
          -100 callsubr
          endchar
        </CharString>
        <CharString name="copyright">
          299 576 hmoveto
          -91 callsubr
          64 vmoveto
          -90 callsubr
          -128 64 rmoveto
          64 64 hlineto
          64 -64 vlineto
          -64 0 -64 0 0 64 0 64 64 0 64 0 64 0 0 64 -64 0 -64 0 -64 0 -64 0 -64 0 0 -64 0 -64 rlineto
          0 -64 0 -64 0 -64 64 0 64 0 64 0 rlineto
          endchar
        </CharString>
        <CharString name="currency">
          107 384 128 rmoveto
          64 64 -64 64 hlineto
          0 64 0 64 0 64 64 0 0 64 -64 0 -64 0 0 -64 -64 0 -64 0 0 64 -64 0 -64 0 0 -64 64 0 rlineto
          0 -64 0 -64 0 -64 0 -64 -64 0 0 -64 64 0 64 0 0 64 64 0 64 0 0 -64 rlineto
          -64 128 rmoveto
          -105 callsubr
          endchar
        </CharString>
        <CharString name="d">
          448 hmoveto
          64 64 hlineto
          0 64 0 64 0 64 0 64 0 64 0 64 0 64 0 64 -64 0 0 -64 0 -64 0 -64 -64 0 -64 0 -64 0 rlineto
          -64 0 -64 0 -64 0 0 -64 0 -64 0 -64 0 -64 0 -64 0 -64 64 0 64 0 64 0 64 0 64 0 rlineto
          128 vmoveto
          -94 callsubr
          endchar
        </CharString>
        <CharString name="degree">
          -21 256 384 rmoveto
          -89 callsubr
          64 vmoveto
          -105 callsubr
          endchar
        </CharString>
        <CharString name="dieresis">
          107 384 448 rmoveto
          -107 callsubr
          -192 hmoveto
          -107 callsubr
          endchar
        </CharString>
        <CharString name="divide">
          107 256 128 rmoveto
          -107 callsubr
          192 256 rmoveto
          -64 0 -64 0 -64 0 -64 0 -64 0 0 -64 64 0 64 0 64 0 64 0 64 0 64 0 0 64 rlineto
          -192 64 rmoveto
          -107 callsubr
          endchar
        </CharString>
        <CharString name="dollar">
          256 hmoveto
          64 64 64 hlineto
          64 0 64 0 0 64 0 64 0 64 0 64 0 64 -64 0 -64 0 -64 0 0 64 0 64 0 64 64 0 64 0 rlineto
          64 -64 vlineto
          -64 64 -64 -64 -64 hlineto
          -64 0 -64 0 0 -64 0 -64 0 -64 0 -64 0 -64 64 0 64 0 64 0 0 -64 0 -64 0 -64 -64 0 -64 0 rlineto
          -64 -64 64 hlineto
          64 0 64 0 rlineto
          128 64 rmoveto
          -104 callsubr
          -192 256 rmoveto
          -103 callsubr
          endchar
        </CharString>
        <CharString name="e">
          448 64 rmoveto
          -64 0 -64 0 -64 0 -64 0 0 64 64 0 64 0 64 0 64 0 64 0 0 64 0 64 0 64 0 64 -64 0 rlineto
          -64 0 -64 0 -64 0 -64 0 -64 0 -64 0 0 -64 0 -64 0 -64 0 -64 0 -64 0 -64 64 0 64 0 64 0 rlineto
          64 0 64 0 64 0 64 0 0 64 rlineto
          -128 128 rmoveto
          -93 callsubr
          endchar
        </CharString>
        <CharString name="eight">
          448 hmoveto
          64 64 hlineto
          0 64 0 64 0 64 0 64 0 64 0 64 -64 0 0 64 0 64 0 64 -64 0 -64 0 -64 0 -64 0 -64 0 rlineto
          0 -64 0 -64 0 -64 -64 0 0 -64 0 -64 0 -64 0 -64 0 -64 0 -64 0 -64 64 0 64 0 64 0 64 0 rlineto
          64 hlineto
          128 vmoveto
          -97 callsubr
          -128 320 rmoveto
          -64 0 -64 0 0 64 0 64 64 0 64 0 64 0 0 -64 0 -64 rlineto
          endchar
        </CharString>
        <CharString name="equal">
          -21 256 320 rmoveto
          -99 callsubr
          -64 128 rmoveto
          -99 callsubr
          endchar
        </CharString>
        <CharString name="exclam">
          -21 192 hmoveto
          -107 callsubr
          64 192 rmoveto
          64 64 hlineto
          64 64 64 vlineto
          0 64 0 64 0 64 -64 0 0 64 -64 0 -64 0 0 -64 -64 0 0 -64 0 -64 0 -64 0 -64 64 0 0 -64 rlineto
          -64 vlineto
          endchar
        </CharString>
        <CharString name="exclamdown">
          -21 192 hmoveto
          64 64 64 64 hlineto
          0 64 0 64 0 64 -64 0 0 64 0 64 -64 0 -64 0 0 -64 0 -64 -64 0 0 -64 0 -64 0 -64 0 -64 rlineto
          64 -64 hlineto
          64 512 rmoveto
          -107 callsubr
          endchar
        </CharString>
        <CharString name="f">
          43 192 hmoveto
          64 64 hlineto
          0 64 0 64 0 64 0 64 64 0 64 0 0 64 -64 0 -64 0 0 64 0 64 64 0 64 0 0 64 -64 0 rlineto
          -64 0 -64 0 -64 0 0 -64 0 -64 0 -64 -64 0 0 -64 64 0 0 -64 0 -64 0 -64 0 -64 0 -64 rlineto
          endchar
        </CharString>
        <CharString name="five">
          448 hmoveto
          64 64 hlineto
          0 64 0 64 0 64 0 64 0 64 0 64 -64 0 -64 0 -64 0 -64 0 -64 0 0 64 0 64 64 0 64 0 rlineto
          64 0 64 0 64 0 0 64 -64 0 -64 0 -64 0 -64 0 -64 0 -64 0 -64 0 0 -64 0 -64 0 -64 0 -64 rlineto
          -64 64 vlineto
          64 64 64 hlineto
          64 0 64 0 64 0 0 -64 0 -64 0 -64 0 -64 -64 0 -64 0 -64 0 -64 0 -64 0 -64 0 0 -64 0 -64 rlineto
          64 0 64 0 64 0 64 0 64 0 rlineto
          endchar
        </CharString>
        <CharString name="four">
          448 hmoveto
          64 64 hlineto
          0 64 0 64 0 64 0 64 0 64 0 64 0 64 -64 0 0 -64 0 -64 -64 0 -64 0 -64 0 -64 0 0 64 rlineto
          0 64 0 64 0 64 -64 0 -64 0 0 -64 0 -64 0 -64 0 -64 0 -64 64 0 64 0 64 0 64 0 64 0 rlineto
          64 -64 hlineto
          0 -64 0 -64 0 -64 rlineto
          endchar
        </CharString>
        <CharString name="g">
          448 -128 rmoveto
          64 64 hlineto
          0 64 0 64 0 64 0 64 0 64 0 64 0 64 -64 0 -64 0 -64 0 -64 0 -64 0 -64 0 -64 0 0 -64 rlineto
          0 -64 0 -64 0 -64 0 -64 0 -64 64 0 64 0 64 0 64 0 64 0 64 0 0 -64 -64 0 -64 0 -64 0 rlineto
          -64 0 -64 0 -64 0 0 -64 64 0 64 0 64 0 64 0 64 0 rlineto
          256 vmoveto
          -94 callsubr
          endchar
        </CharString>
        <CharString name="grave">
          -149 128 512 rmoveto
          64 64 hlineto
          64 -64 64 -64 -64 vlineto
          -64 64 vlineto
          endchar
        </CharString>
        <CharString name="greater">
          -21 128 128 rmoveto
          -95 callsubr
          endchar
        </CharString>
        <CharString name="guillemotleft">
          235 512 128 rmoveto
          -96 callsubr
          -192 hmoveto
          -96 callsubr
          endchar
        </CharString>
        <CharString name="guillemotright">
          235 384 128 rmoveto
          -95 callsubr
          -192 hmoveto
          -95 callsubr
          endchar
        </CharString>
        <CharString name="h">
          107 384 hmoveto
          64 64 hlineto
          0 64 0 64 0 64 0 64 0 64 -64 0 -64 0 -64 0 -64 0 0 64 0 64 0 64 -64 0 -64 0 0 -64 rlineto
          0 -64 0 -64 0 -64 0 -64 0 -64 0 -64 0 -64 0 -64 64 0 64 0 0 64 0 64 0 64 0 64 0 64 rlineto
          64 0 64 0 64 0 0 -64 0 -64 0 -64 0 -64 rlineto
          endchar
        </CharString>
        <CharString name="hyphen">
          -21 256 320 rmoveto
          -99 callsubr
          endchar
        </CharString>
        <CharString name="i">
          -149 128 hmoveto
          64 64 hlineto
          0 64 0 64 0 64 0 64 0 64 -64 0 -64 0 0 -64 0 -64 0 -64 0 -64 0 -64 0 -64 rlineto
          64 448 rmoveto
          -107 callsubr
          endchar
        </CharString>
        <CharString name="j">
          -85 192 -128 rmoveto
          64 64 hlineto
          0 64 0 64 0 64 0 64 0 64 0 64 0 64 -64 0 -64 0 0 -64 0 -64 0 -64 0 -64 0 -64 0 -64 rlineto
          -64 -64 vlineto
          -64 -64 64 hlineto
          64 hlineto
          64 576 rmoveto
          -107 callsubr
          endchar
        </CharString>
        <CharString name="k">
          107 384 hmoveto
          64 64 hlineto
          0 64 0 64 -64 0 -64 0 0 64 64 0 0 64 0 64 0 64 -64 0 0 -64 0 -64 -64 0 -64 0 0 64 rlineto
          0 64 0 64 0 64 -64 0 -64 0 0 -64 0 -64 0 -64 0 -64 0 -64 0 -64 0 -64 0 -64 0 -64 64 0 rlineto
          64 64 hlineto
          0 64 0 64 0 64 64 0 0 -64 0 -64 64 0 64 0 0 -64 rlineto
          endchar
        </CharString>
        <CharString name="l">
          -85 192 hmoveto
          64 64 hlineto
          64 -64 64 vlineto
          0 64 0 64 0 64 0 64 0 64 0 64 -64 0 -64 0 0 -64 0 -64 0 -64 0 -64 0 -64 0 -64 0 -64 rlineto
          0 -64 0 -64 64 0 rlineto
          endchar
        </CharString>
        <CharString name="less">
          -21 256 128 rmoveto
          -96 callsubr
          endchar
        </CharString>
        <CharString name="m">
          299 576 hmoveto
          64 64 hlineto
          0 64 0 64 0 64 0 64 0 64 -64 0 -64 0 -64 0 -64 0 -64 0 -64 0 -64 0 -64 0 -64 0 0 -64 rlineto
          0 -64 0 -64 0 -64 0 -64 0 -64 64 0 64 0 0 64 0 64 0 64 0 64 0 64 64 0 64 0 64 0 rlineto
          0 -64 0 -64 0 -64 64 0 0 64 0 64 0 64 64 0 64 0 0 -64 0 -64 0 -64 0 -64 rlineto
          endchar
        </CharString>
        <CharString name="multiply">
          107 384 192 rmoveto
          64 64 hlineto
          64 -64 vlineto
          -64 64 64 hlineto
          64 64 hlineto
          64 -64 -64 -64 vlineto
          -64 0 -64 0 -64 0 0 64 -64 0 0 -64 0 -64 64 0 64 0 0 -64 -64 0 -64 0 0 -64 0 -64 64 0 rlineto
          64 64 vlineto
          64 0 64 0 64 0 rlineto
          endchar
        </CharString>
        <CharString name="n">
          107 384 hmoveto
          64 64 hlineto
          0 64 0 64 0 64 0 64 0 64 -64 0 -64 0 -64 0 -64 0 -64 0 -64 0 0 -64 0 -64 0 -64 0 -64 rlineto
          0 -64 0 -64 64 0 64 0 0 64 0 64 0 64 0 64 0 64 64 0 64 0 64 0 0 -64 0 -64 0 -64 rlineto
          -64 vlineto
          endchar
        </CharString>
        <CharString name="nine">
          448 hmoveto
          64 64 hlineto
          0 64 0 64 0 64 0 64 0 64 0 64 0 64 0 64 0 64 -64 0 -64 0 -64 0 -64 0 -64 0 -64 0 rlineto
          -64 -64 hlineto
          0 -64 0 -64 0 -64 0 -64 0 -64 64 0 64 0 64 0 64 0 64 0 64 0 0 -64 0 -64 0 -64 rlineto
          -64 256 rmoveto
          -97 callsubr
          endchar
        </CharString>
        <CharString name="nonmarkingreturn">
          -64 endchar
        </CharString>
        <CharString name="numbersign">
          384 64 rmoveto
          64 64 64 64 hlineto
          64 -64 64 vlineto
          64 64 64 -64 64 -64 -64 -64 vlineto
          -64 64 -64 hlineto
          -64 -64 -64 -64 64 -64 hlineto
          -64 -64 -64 vlineto
          -64 64 -64 64 vlineto
          64 64 64 hlineto
          64 hlineto
          -64 128 rmoveto
          -105 callsubr
          endchar
        </CharString>
        <CharString name="o">
          448 hmoveto
          64 64 hlineto
          0 64 0 64 0 64 0 64 0 64 -64 0 -64 0 -64 0 -64 0 -64 0 -64 0 -64 0 0 -64 0 -64 0 -64 rlineto
          0 -64 0 -64 0 -64 64 0 64 0 64 0 64 0 64 0 rlineto
          128 vmoveto
          -94 callsubr
          endchar
        </CharString>
        <CharString name="one">
          -21 256 hmoveto
          64 64 hlineto
          64 -64 64 vlineto
          0 64 0 64 0 64 0 64 0 64 0 64 0 64 -64 0 -64 0 -64 0 0 -64 64 0 0 -64 0 -64 0 -64 rlineto
          0 -64 0 -64 0 -64 0 -64 -64 0 0 -64 0 -64 64 0 64 0 rlineto
          endchar
        </CharString>
        <CharString name="oslash">
          235 256 -64 rmoveto
          64 64 64 hlineto
          64 0 64 0 64 0 0 64 0 64 0 64 0 64 0 64 0 64 -64 0 -64 0 0 64 -64 0 0 -64 -64 0 rlineto
          -64 0 -64 0 -64 0 -64 0 0 -64 0 -64 0 -64 0 -64 0 -64 0 -64 64 0 64 0 64 0 rlineto
          128 256 rmoveto
          64 64 64 -64 hlineto
          0 -64 0 -64 -64 0 -64 0 -64 0 0 64 -64 0 0 -64 -64 0 0 64 0 64 0 64 64 0 64 0 64 0 rlineto
          endchar
        </CharString>
        <CharString name="p">
          128 -128 rmoveto
          64 64 hlineto
          64 64 vlineto
          64 0 64 0 64 0 64 0 0 64 0 64 0 64 0 64 0 64 0 64 -64 0 -64 0 -64 0 -64 0 -64 0 rlineto
          -64 0 -64 0 0 -64 0 -64 0 -64 0 -64 0 -64 0 -64 0 -64 0 -64 rlineto
          320 256 rmoveto
          -94 callsubr
          endchar
        </CharString>
        <CharString name="parenleft">
          -85 192 hmoveto
          64 64 -64 64 hlineto
          64 -64 64 vlineto
          0 64 0 64 0 64 0 64 64 0 0 64 0 64 64 0 0 64 -64 0 -64 0 0 -64 0 -64 -64 0 0 -64 rlineto
          0 -64 0 -64 0 -64 0 -64 0 -64 0 -64 64 0 0 -64 0 -64 rlineto
          endchar
        </CharString>
        <CharString name="parenright">
          -85 128 hmoveto
          64 64 hlineto
          64 64 64 vlineto
          0 64 0 64 0 64 0 64 0 64 0 64 -64 0 0 64 0 64 -64 0 -64 0 0 -64 64 0 0 -64 0 -64 rlineto
          64 -64 hlineto
          0 -64 0 -64 0 -64 0 -64 -64 0 0 -64 0 -64 -64 0 0 -64 rlineto
          endchar
        </CharString>
        <CharString name="percent">
          299 192 hmoveto
          -102 callsubr
          128 128 rmoveto
          -106 callsubr
          128 64 rmoveto
          -102 callsubr
          128 -384 rmoveto
          -101 callsubr
          64 64 rmoveto
          -64 64 64 hlineto
          -384 256 rmoveto
          -101 callsubr
          64 64 rmoveto
          -64 64 64 hlineto
          endchar
        </CharString>
        <CharString name="period">
          -149 128 hmoveto
          -107 callsubr
          endchar
        </CharString>
        <CharString name="periodcentered">
          -21 256 192 rmoveto
          -89 callsubr
          endchar
        </CharString>
        <CharString name="plus">
          107 256 192 rmoveto
          64 64 hlineto
          64 64 vlineto
          64 64 -64 hlineto
          -64 64 hlineto
          64 -64 vlineto
          -64 -64 hlineto
          -64 -64 vlineto
          -64 -64 64 hlineto
          64 -64 hlineto
          -64 vlineto
          endchar
        </CharString>
        <CharString name="q">
          448 -128 rmoveto
          64 64 hlineto
          0 64 0 64 0 64 0 64 0 64 0 64 0 64 -64 0 -64 0 -64 0 -64 0 -64 0 -64 0 -64 0 0 -64 rlineto
          0 -64 0 -64 0 -64 0 -64 0 -64 64 0 64 0 64 0 64 0 64 0 64 0 0 -64 rlineto
          -64 192 rmoveto
          -94 callsubr
          endchar
        </CharString>
        <CharString name="question">
          320 hmoveto
          -107 callsubr
          64 192 rmoveto
          64 64 64 hlineto
          64 64 hlineto
          0 64 0 64 0 64 0 64 0 64 -64 0 -64 0 -64 0 -64 0 -64 0 -64 0 -64 0 0 -64 0 -64 64 0 rlineto
          64 64 64 hlineto
          64 0 64 0 64 0 0 -64 0 -64 0 -64 0 -64 -64 0 -64 0 -64 0 0 -64 0 -64 rlineto
          endchar
        </CharString>
        <CharString name="quotedbl">
          43 320 512 rmoveto
          -106 callsubr
          -192 -64 rmoveto
          64 64 hlineto
          0 64 0 64 -64 0 -64 0 0 -64 0 -64 0 -64 rlineto
          endchar
        </CharString>
        <CharString name="quotesingle">
          -213 64 512 rmoveto
          -106 callsubr
          endchar
        </CharString>
        <CharString name="r">
          43 128 hmoveto
          64 64 hlineto
          0 64 0 64 0 64 0 64 64 0 64 0 64 0 0 64 -64 0 -64 0 -64 0 -64 0 -64 0 0 -64 0 -64 rlineto
          0 -64 0 -64 0 -64 0 -64 rlineto
          endchar
        </CharString>
        <CharString name="registered">
          299 384 128 rmoveto
          64 64 hlineto
          64 64 64 vlineto
          0 64 0 64 -64 0 -64 0 -64 0 -64 0 -64 0 0 -64 0 -64 0 -64 0 -64 0 -64 64 0 64 0 0 64 rlineto
          64 64 -64 vlineto
          192 -192 rmoveto
          -91 callsubr
          64 vmoveto
          -90 callsubr
          -192 256 rmoveto
          -64 64 64 hlineto
          64 -64 hlineto
          endchar
        </CharString>
        <CharString name="s">
          448 hmoveto
          64 64 hlineto
          0 64 0 64 0 64 -64 0 -64 0 -64 0 -64 0 -64 0 0 64 64 0 64 0 64 0 64 0 0 64 -64 0 rlineto
          -64 0 -64 0 -64 0 -64 0 -64 0 0 -64 0 -64 0 -64 64 0 64 0 64 0 64 0 64 0 64 0 0 -64 rlineto
          -64 0 -64 0 -64 0 -64 0 -64 0 -64 0 0 -64 0 -64 64 0 64 0 64 0 64 0 64 0 rlineto
          endchar
        </CharString>
        <CharString name="section">
          43 320 hmoveto
          64 64 hlineto
          0 64 0 64 0 64 -64 0 0 64 0 64 -64 0 -64 0 -64 0 0 64 0 64 64 0 64 0 64 0 0 64 rlineto
          -64 0 -64 0 -64 0 -64 0 0 -64 0 -64 0 -64 0 -64 64 0 0 -64 0 -64 64 0 64 0 64 0 0 -64 rlineto
          -64 -64 vlineto
          -64 0 -64 0 0 -64 64 0 64 0 rlineto
          256 vmoveto
          -64 64 64 hlineto
          endchar
        </CharString>
        <CharString name="semicolon">
          -149 128 -128 rmoveto
          -100 callsubr
          320 vmoveto
          -107 callsubr
          endchar
        </CharString>
        <CharString name="seven">
          320 hmoveto
          64 64 hlineto
          0 64 0 64 0 64 64 0 64 0 0 64 0 64 0 64 0 64 0 64 0 64 -64 0 -64 0 -64 0 -64 0 rlineto
          -64 0 -64 0 -64 0 0 -64 64 0 64 0 64 0 64 0 64 0 64 0 0 -64 0 -64 0 -64 0 -64 -64 0 rlineto
          -64 0 -64 0 0 -64 0 -64 0 -64 0 -64 0 -64 rlineto
          endchar
        </CharString>
        <CharString name="six">
          448 hmoveto
          64 64 hlineto
          0 64 0 64 0 64 0 64 0 64 0 64 -64 0 -64 0 -64 0 -64 0 -64 0 0 64 0 64 64 0 64 0 rlineto
          64 64 -64 hlineto
          -64 0 -64 0 -64 0 -64 0 0 -64 0 -64 0 -64 0 -64 0 -64 0 -64 0 -64 0 -64 0 -64 0 -64 64 0 rlineto
          64 0 64 0 64 0 64 0 rlineto
          128 vmoveto
          -97 callsubr
          endchar
        </CharString>
        <CharString name="slash">
          256 192 rmoveto
          -106 callsubr
          -128 -256 rmoveto
          -98 callsubr
          384 320 rmoveto
          -98 callsubr
          endchar
        </CharString>
        <CharString name="space">
          -85 endchar
        </CharString>
        <CharString name="sterling">
          299 448 448 rmoveto
          64 64 hlineto
          64 -64 vlineto
          -64 0 -64 0 -64 0 -64 0 -64 0 0 -64 0 -64 0 -64 0 -64 -64 0 0 -64 64 0 0 -64 0 -64 -64 0 rlineto
          0 -64 0 -64 64 0 64 0 64 0 64 0 64 0 64 0 64 0 64 0 64 0 0 64 0 64 -64 0 -64 0 rlineto
          -64 0 -64 0 -64 0 -64 0 0 64 0 64 64 0 64 0 0 64 -64 0 -64 0 0 64 0 64 0 64 64 0 rlineto
          64 0 64 0 rlineto
          endchar
        </CharString>
        <CharString name="t">
          43 192 hmoveto
          64 64 hlineto
          0 64 0 64 0 64 0 64 64 0 64 0 0 64 -64 0 -64 0 0 64 -64 0 -64 0 0 -64 -64 0 0 -64 rlineto
          64 -64 hlineto
          0 -64 0 -64 0 -64 0 -64 rlineto
          endchar
        </CharString>
        <CharString name="three">
          448 hmoveto
          64 64 hlineto
          0 64 0 64 0 64 0 64 0 64 0 64 0 64 0 64 0 64 -64 0 -64 0 -64 0 -64 0 -64 0 -64 0 rlineto
          -64 -64 hlineto
          -64 64 vlineto
          64 64 64 hlineto
          64 0 64 0 64 0 0 -64 0 -64 -64 0 -64 0 0 -64 0 -64 64 0 64 0 0 -64 0 -64 0 -64 -64 0 rlineto
          -64 0 -64 0 -64 0 -64 0 -64 0 0 -64 0 -64 64 0 64 0 64 0 64 0 64 0 rlineto
          endchar
        </CharString>
        <CharString name="two">
          448 hmoveto
          64 64 hlineto
          64 -64 vlineto
          -64 0 -64 0 -64 0 -64 0 0 64 0 64 64 0 64 0 64 0 64 0 64 0 0 64 0 64 0 64 0 64 rlineto
          0 64 0 64 -64 0 -64 0 -64 0 -64 0 -64 0 -64 0 -64 0 0 -64 0 -64 64 0 64 0 0 64 64 0 rlineto
          64 0 64 0 64 0 0 -64 0 -64 0 -64 0 -64 -64 0 -64 0 -64 0 -64 0 -64 0 -64 0 0 -64 0 -64 rlineto
          0 -64 0 -64 0 -64 64 0 64 0 64 0 64 0 64 0 rlineto
          endchar
        </CharString>
        <CharString name="u">
          448 hmoveto
          64 64 hlineto
          0 64 0 64 0 64 0 64 0 64 -64 0 0 -64 0 -64 0 -64 0 -64 -64 0 -64 0 -64 0 -64 0 0 64 rlineto
          0 64 0 64 0 64 -64 0 -64 0 0 -64 0 -64 0 -64 0 -64 0 -64 0 -64 64 0 64 0 64 0 64 0 rlineto
          64 hlineto
          endchar
        </CharString>
        <CharString name="underscore">
          235 512 -192 rmoveto
          64 64 hlineto
          64 -64 vlineto
          -64 0 -64 0 -64 0 -64 0 -64 0 -64 0 -64 0 -64 0 -64 0 0 -64 0 -64 64 0 64 0 64 0 64 0 rlineto
          64 0 64 0 64 0 64 0 rlineto
          endchar
        </CharString>
        <CharString name="uni00A0">
          -85 endchar
        </CharString>
        <CharString name="uni3000">
          619 endchar
        </CharString>
        <CharString name="v">
          43 256 hmoveto
          64 64 hlineto
          0 64 0 64 64 0 0 64 0 64 0 64 -64 0 0 -64 0 -64 -64 0 0 -64 0 -64 0 -64 -64 0 0 64 rlineto
          0 64 0 64 0 64 0 64 -64 0 -64 0 0 -64 0 -64 0 -64 0 -64 0 -64 0 -64 64 0 64 0 rlineto
          endchar
        </CharString>
        <CharString name="w">
          299 576 hmoveto
          64 64 hlineto
          0 64 0 64 0 64 0 64 0 64 -64 0 0 -64 0 -64 0 -64 0 -64 -64 0 -64 0 0 64 0 64 -64 0 rlineto
          0 -64 0 -64 -64 0 -64 0 -64 0 0 64 0 64 0 64 0 64 -64 0 -64 0 0 -64 0 -64 0 -64 0 -64 rlineto
          0 -64 0 -64 64 0 64 0 64 0 64 0 64 0 64 0 64 0 rlineto
          endchar
        </CharString>
        <CharString name="x">
          448 hmoveto
          64 64 hlineto
          64 -64 vlineto
          -64 64 hlineto
          64 64 vlineto
          64 64 hlineto
          64 -64 -64 -64 vlineto
          -64 0 -64 0 -64 0 0 64 -64 0 -64 0 0 -64 0 -64 64 0 64 0 64 0 0 -64 0 -64 -64 0 -64 0 rlineto
          -64 -64 hlineto
          -64 64 vlineto
          64 64 64 hlineto
          64 0 64 0 64 0 rlineto
          endchar
        </CharString>
        <CharString name="y">
          448 -128 rmoveto
          64 64 hlineto
          0 64 0 64 0 64 0 64 0 64 0 64 0 64 -64 0 0 -64 0 -64 0 -64 0 -64 -64 0 -64 0 -64 0 rlineto
          -64 64 hlineto
          0 64 0 64 0 64 -64 0 -64 0 0 -64 0 -64 0 -64 0 -64 0 -64 0 -64 64 0 64 0 64 0 64 0 rlineto
          64 0 64 0 0 -64 -64 0 -64 0 -64 0 -64 0 0 -64 64 0 64 0 64 0 rlineto
          endchar
        </CharString>
        <CharString name="yen">
          448 64 rmoveto
          -64 64 64 hlineto
          64 64 -64 hlineto
          -64 64 64 hlineto
          64 64 hlineto
          0 64 0 64 0 64 0 64 -64 0 0 -64 0 -64 0 -64 0 -64 -64 0 -64 0 -64 0 -64 0 0 64 0 64 rlineto
          0 64 0 64 -64 0 -64 0 0 -64 0 -64 0 -64 0 -64 0 -64 64 0 64 0 64 0 0 -64 -64 0 -64 0 rlineto
          -64 64 vlineto
          64 -64 -64 hlineto
          -64 -64 64 hlineto
          64 0 64 0 64 0 64 0 64 0 0 64 rlineto
          endchar
        </CharString>
        <CharString name="z">
          107 384 hmoveto
          64 64 hlineto
          64 -64 vlineto
          -64 0 -64 0 -64 0 0 64 64 0 64 0 64 0 0 64 0 64 64 0 0 64 -64 0 -64 0 -64 0 -64 0 rlineto
          -64 0 -64 0 0 -64 64 0 64 0 64 0 64 0 0 -64 -64 0 -64 0 -64 0 0 -64 0 -64 -64 0 0 -64 rlineto
          -64 64 vlineto
          64 0 64 0 64 0 rlineto
          endchar
        </CharString>
        <CharString name="zero">
          320 256 rmoveto
          -106 callsubr
          128 -320 rmoveto
          64 64 hlineto
          0 64 0 64 0 64 0 64 0 64 0 64 0 64 0 64 0 64 -64 0 -64 0 -64 0 -64 0 -64 0 -64 0 rlineto
          -64 -64 hlineto
          0 -64 0 -64 0 -64 0 -64 0 -64 0 -64 0 -64 0 -64 0 -64 64 0 64 0 64 0 64 0 64 0 rlineto
          128 vmoveto
          -64 0 -64 0 -64 0 0 64 0 64 0 64 0 64 0 64 0 64 0 64 64 0 64 0 64 0 64 0 0 -64 rlineto
          0 -64 0 -64 0 -64 0 -64 0 -64 0 -64 rlineto
          endchar
        </CharString>
</ttFont>
